<svg xmlns="http://www.w3.org/2000/svg" width="228" height="21" viewBox="0 0 228 21" fill="none">
<path d="M1.2498 19.7381L0.831804 19.7841V19.7861L1.2498 19.7381ZM1.4308 18.886L1.79781 19.0921L1.79881 19.0901L1.4308 18.886ZM10.4558 2.58707L10.8238 2.79105H10.8248L10.4558 2.58707ZM11.7178 1.93207L11.4198 2.23007L11.4268 2.23706L11.4338 2.24405L11.7178 1.93207ZM12.1598 2.58707L11.7878 2.78607L11.7918 2.79105L12.1598 2.58707ZM21.2018 18.9031L20.8338 19.1071L20.8378 19.1131L21.2018 18.9031ZM20.3828 20.0001L20.6278 19.6581L20.6188 19.6521L20.6098 19.6461L20.3828 20.0001ZM19.9238 19.4431L19.5558 19.6461L19.5568 19.649L19.9238 19.4431ZM17.1398 14.3981L17.5078 14.1941L17.3878 13.9771H17.1398V14.3981ZM5.47679 14.3981V13.9771H5.2278L5.10781 14.1951L5.47679 14.3981ZM2.6588 19.5091L2.28981 19.3051L2.28581 19.313L2.6588 19.5091ZM5.9518 13.4311L5.5818 13.2291L5.2408 13.8521H5.9518V13.4311ZM16.6638 13.4311V13.8521H17.3748L17.0338 13.2291L16.6638 13.4311ZM11.3078 3.65207L11.6768 3.45007L11.3078 2.77606L10.9388 3.45007L11.3078 3.65207ZM1.7748 19.7431C1.6738 19.7431 1.65779 19.72 1.67079 19.731C1.67779 19.736 1.6798 19.7411 1.6798 19.7401C1.6788 19.7371 1.6718 19.7231 1.6678 19.6901L0.831804 19.7861C0.857804 20.0061 0.946795 20.2261 1.14079 20.3841C1.32779 20.5371 1.5578 20.5851 1.7748 20.5851V19.7431ZM1.66881 19.6911C1.64581 19.4891 1.68481 19.2931 1.79781 19.0921L1.06279 18.6801C0.869792 19.0261 0.788804 19.3971 0.831804 19.7841L1.66881 19.6911ZM1.79881 19.0901L10.8238 2.79105L10.0878 2.38406L1.06182 18.6821L1.79881 19.0901ZM10.8248 2.79105C10.9988 2.47505 11.1198 2.28607 11.1918 2.19907L10.5398 1.66605C10.4148 1.81805 10.2628 2.06706 10.0878 2.38406L10.8248 2.79105ZM11.1918 2.19907C11.1948 2.19507 11.1978 2.19107 11.2088 2.18707C11.2218 2.18207 11.2518 2.17307 11.3078 2.17307V1.33105C11.0218 1.33105 10.7388 1.42305 10.5398 1.66605L11.1918 2.19907ZM11.3078 2.17307C11.3358 2.17307 11.3688 2.17907 11.4198 2.23007L12.0148 1.63507C11.8258 1.44507 11.5848 1.33105 11.3078 1.33105V2.17307ZM11.4338 2.24405C11.4958 2.30005 11.6148 2.46007 11.7878 2.78607L12.5308 2.38907C12.3548 2.06007 12.1788 1.78306 12.0008 1.62106L11.4338 2.24405ZM11.7918 2.79105L20.8338 19.1071L21.5698 18.6981L12.5278 2.38306L11.7918 2.79105ZM20.8378 19.1131C20.9238 19.2631 20.9608 19.404 20.9608 19.541H21.8028C21.8028 19.242 21.7198 18.957 21.5658 18.692L20.8378 19.1131ZM20.9608 19.541C20.9608 19.695 20.9258 19.7311 20.9288 19.7281C20.9398 19.7151 20.9328 19.7431 20.8248 19.7431V20.5851C21.0888 20.5851 21.3598 20.5091 21.5568 20.2891C21.7448 20.0781 21.8028 19.803 21.8028 19.541H20.9608ZM20.8248 19.7431C20.7948 19.7431 20.7318 19.732 20.6278 19.6581L20.1378 20.3421C20.3398 20.4861 20.5708 20.5851 20.8248 20.5851V19.7431ZM20.6098 19.6461C20.5428 19.6031 20.4318 19.4881 20.2908 19.2371L19.5568 19.649C19.7218 19.944 19.9168 20.2011 20.1548 20.3541L20.6098 19.6461ZM20.2928 19.2401L17.5078 14.1941L16.7708 14.6011L19.5558 19.6461L20.2928 19.2401ZM17.1398 13.9771H5.47679V14.8191H17.1398V13.9771ZM5.10781 14.1951L2.28981 19.3051L3.02782 19.7121L5.8448 14.6011L5.10781 14.1951ZM2.28581 19.313C2.09881 19.67 1.9218 19.7431 1.7748 19.7431V20.5851C2.3478 20.5851 2.76082 20.2211 3.03182 19.7041L2.28581 19.313ZM5.9518 13.8521H16.6638V13.0101H5.9518V13.8521ZM17.0338 13.2291L11.6768 3.45007L10.9388 3.85406L16.2948 13.6341L17.0338 13.2291ZM10.9388 3.45007L5.5818 13.2291L6.32082 13.6341L11.6768 3.85406L10.9388 3.45007ZM23.7818 19.9341L23.6688 20.3401L23.6788 20.343L23.6898 20.3451L23.7818 19.9341ZM24.0108 18.5591L24.2878 18.8751L24.2898 18.8741L24.0108 18.5591ZM41.7668 2.83307L42.0458 3.14807L42.8768 2.41205H41.7668V2.83307ZM24.1258 1.93207L24.4088 2.24405L24.4158 2.23706L24.4228 2.23007L24.1258 1.93207ZM43.4548 1.83408L43.3648 2.24506L43.3688 2.24606L43.4548 1.83408ZM43.6678 2.78406L43.9888 3.05606L43.9938 3.05005L43.9978 3.04407L43.6678 2.78406ZM43.3068 3.19406L43.5858 3.50906L43.6028 3.49405L43.6168 3.47806L43.3068 3.19406ZM25.5338 18.9191L25.2548 18.6041L24.4228 19.3401H25.5338V18.9191ZM43.1428 19.0991L42.8588 19.4091L42.8658 19.416L42.8738 19.4221L43.1428 19.0991ZM24.6818 19.5791C24.2848 19.5791 24.0228 19.557 23.8728 19.524L23.6898 20.3451C23.9338 20.3991 24.2718 20.4211 24.6818 20.4211V19.5791ZM23.8938 19.5291C23.8928 19.5291 23.9008 19.5311 23.9108 19.5391C23.9208 19.5471 23.9258 19.5551 23.9268 19.5561C23.9268 19.5561 23.9218 19.5471 23.9168 19.5231C23.9118 19.4981 23.9078 19.4611 23.9078 19.4101H23.0658C23.0658 19.5981 23.0958 19.7961 23.1938 19.9691C23.2988 20.1561 23.4648 20.2831 23.6688 20.3401L23.8938 19.5291ZM23.9078 19.4101C23.9078 19.3081 23.9318 19.2521 23.9578 19.2161L23.2768 18.7201C23.1288 18.9251 23.0658 19.1631 23.0658 19.4101H23.9078ZM23.9578 19.2161C24.0198 19.1311 24.1248 19.0181 24.2878 18.8751L23.7338 18.2421C23.5468 18.4051 23.3898 18.5651 23.2768 18.7201L23.9578 19.2161ZM24.2898 18.8741L42.0458 3.14807L41.4878 2.51807L23.7318 18.2431L24.2898 18.8741ZM41.7668 2.41205H24.6818V3.25406H41.7668V2.41205ZM24.6818 2.41205C24.4808 2.41205 24.4178 2.36706 24.4088 2.35806L23.8418 2.98105C24.0728 3.19005 24.3818 3.25406 24.6818 3.25406V2.41205ZM24.4088 2.35806C24.3818 2.33406 24.3728 2.31807 24.3698 2.31207C24.3678 2.30707 24.3658 2.30206 24.3658 2.29306H23.5238C23.5238 2.57106 23.6478 2.80405 23.8418 2.98105L24.4088 2.35806ZM24.3658 2.29306C24.3658 2.29206 24.3658 2.29307 24.3658 2.29407C24.3658 2.29507 24.3658 2.29505 24.3668 2.29205C24.3688 2.28705 24.3788 2.27005 24.4088 2.24405L23.8418 1.62106C23.6568 1.78906 23.5238 2.01606 23.5238 2.29306H24.3658ZM24.4228 2.23007C24.4328 2.22007 24.4898 2.17307 24.6818 2.17307V1.33105C24.3728 1.33105 24.0578 1.40507 23.8278 1.63507L24.4228 2.23007ZM24.6818 2.17307H42.5038V1.33105H24.6818V2.17307ZM42.5038 2.17307C42.8698 2.17307 43.1538 2.19906 43.3648 2.24506L43.5438 1.42307C43.2528 1.35907 42.9038 1.33105 42.5038 1.33105V2.17307ZM43.3688 2.24606C43.3998 2.25306 43.4158 2.26006 43.4218 2.26306C43.4268 2.26606 43.4248 2.26505 43.4208 2.26105C43.4108 2.24805 43.4268 2.25507 43.4268 2.32507H44.2688C44.2688 2.12207 44.2188 1.91105 44.0778 1.73505C43.9358 1.55705 43.7398 1.46406 43.5398 1.42206L43.3688 2.24606ZM43.4268 2.32507C43.4268 2.36107 43.4138 2.42505 43.3368 2.52405L43.9978 3.04407C44.1608 2.83707 44.2688 2.59607 44.2688 2.32507H43.4268ZM43.3458 2.51205C43.2298 2.65005 43.1128 2.78206 42.9968 2.90906L43.6168 3.47806C43.7408 3.34306 43.8648 3.20206 43.9888 3.05606L43.3458 2.51205ZM43.0278 2.87805L25.2548 18.6041L25.8128 19.2341L43.5858 3.50906L43.0278 2.87805ZM25.5338 19.3401H42.5698V18.498H25.5338V19.3401ZM42.5698 19.3401C42.7588 19.3401 42.8318 19.3851 42.8588 19.4091L43.4278 18.7891C43.1918 18.5731 42.8828 18.498 42.5698 18.498V19.3401ZM42.8738 19.4221C42.9078 19.4511 42.9188 19.4691 42.9208 19.4731C42.9218 19.4741 42.9208 19.4731 42.9198 19.4691C42.9188 19.4661 42.9188 19.4621 42.9188 19.4591H43.7608C43.7608 19.1681 43.6088 18.9391 43.4128 18.7761L42.8738 19.4221ZM42.9188 19.4591C42.9188 19.4611 42.9188 19.4621 42.9188 19.4621V19.4631C42.9188 19.4631 42.9178 19.4641 42.9178 19.4651C42.9148 19.4701 42.9048 19.4871 42.8738 19.5131L43.4128 20.1601C43.6178 19.9881 43.7608 19.7521 43.7608 19.4591H42.9188ZM42.8738 19.5131C42.8468 19.5351 42.7678 19.5791 42.5698 19.5791V20.4211C42.8748 20.4211 43.1768 20.3561 43.4128 20.1601L42.8738 19.5131ZM42.5698 19.5791H24.6818V20.4211H42.5698V19.5791ZM55.7808 19.4271L55.4178 19.6401L55.4198 19.6431L55.7808 19.4271ZM46.1978 3.14407L45.8328 3.35306L45.8348 3.35806L46.1978 3.14407ZM45.9688 2.71906L45.5758 2.87006L45.5828 2.88907L45.5918 2.90707L45.9688 2.71906ZM46.0178 1.98105L46.3678 2.21506L46.3718 2.20807L46.3758 2.20206L46.0178 1.98105ZM46.4268 1.76807L46.4758 1.35007L46.4518 1.34805H46.4268V1.76807ZM46.8858 2.03107L46.5548 2.29105L46.5608 2.29807L46.5658 2.30405L46.8858 2.03107ZM47.2628 2.57108L46.8978 2.78207L46.8998 2.78406L47.2628 2.57108ZM56.6318 18.5261L56.2688 18.7391L56.6328 19.3571L56.9948 18.7391L56.6318 18.5261ZM65.9858 2.57108L66.3488 2.78406L66.3498 2.78207L65.9858 2.57108ZM66.7878 1.76807V1.34805H66.7578L66.7288 1.35205L66.7878 1.76807ZM67.2468 2.73505L66.8758 2.53506L66.8708 2.54706L67.2468 2.73505ZM67.0178 3.14407L66.6588 2.92407L66.6548 2.93106L67.0178 3.14407ZM57.4678 19.4271L57.1048 19.2141L57.1018 19.218L57.4678 19.4271ZM56.6158 19.5791C56.4878 19.5791 56.3258 19.5171 56.1418 19.2101L55.4198 19.6431C55.6938 20.1011 56.0888 20.4211 56.6158 20.4211V19.5791ZM56.1428 19.2131L46.5608 2.93106L45.8348 3.35806L55.4178 19.6401L56.1428 19.2131ZM46.5628 2.93607C46.4788 2.78807 46.4068 2.65306 46.3448 2.53006L45.5918 2.90707C45.6618 3.04607 45.7418 3.19506 45.8328 3.35306L46.5628 2.93607ZM46.3608 2.56705C46.3228 2.46605 46.3078 2.38105 46.3078 2.30905H45.4658C45.4658 2.49905 45.5058 2.68706 45.5758 2.87006L46.3608 2.56705ZM46.3078 2.30905C46.3078 2.33405 46.3018 2.33905 46.3098 2.31805C46.3178 2.29805 46.3348 2.26406 46.3678 2.21506L45.6678 1.74805C45.5658 1.90005 45.4658 2.09505 45.4658 2.30905H46.3078ZM46.3758 2.20206C46.3808 2.19506 46.3828 2.19305 46.3828 2.19305C46.3818 2.19405 46.3808 2.19507 46.3798 2.19507C46.3768 2.19707 46.3878 2.18906 46.4268 2.18906V1.34805C46.1148 1.34805 45.8328 1.47805 45.6588 1.76105L46.3758 2.20206ZM46.3778 2.18607C46.4478 2.19507 46.5008 2.22205 46.5548 2.29105L47.2168 1.77005C47.0308 1.53405 46.7778 1.38607 46.4758 1.35007L46.3778 2.18607ZM46.5658 2.30405C46.6778 2.43405 46.7888 2.59307 46.8978 2.78207L47.6268 2.36005C47.4958 2.13405 47.3558 1.93205 47.2058 1.75705L46.5658 2.30405ZM46.8998 2.78406L56.2688 18.7391L56.9948 18.313L47.6258 2.35806L46.8998 2.78406ZM56.9948 18.7391L66.3488 2.78406L65.6228 2.35806L56.2688 18.313L56.9948 18.7391ZM66.3498 2.78207C66.4598 2.59307 66.5708 2.43405 66.6818 2.30405L66.0428 1.75705C65.8918 1.93205 65.7518 2.13405 65.6208 2.36005L66.3498 2.78207ZM66.6818 2.30405C66.7668 2.20505 66.8238 2.18906 66.8478 2.18506L66.7288 1.35205C66.4468 1.39205 66.2198 1.55005 66.0428 1.75705L66.6818 2.30405ZM66.7878 2.18906C66.8488 2.18906 66.8768 2.19906 66.8838 2.20206C66.8858 2.20406 66.8868 2.20406 66.8838 2.20206C66.8808 2.20006 66.8798 2.19806 66.8798 2.19806L67.5808 1.73206C67.3908 1.44706 67.0868 1.34805 66.7878 1.34805V2.18906ZM66.8798 2.19806C66.9358 2.28206 66.9408 2.32707 66.9408 2.34207H67.7828C67.7828 2.11607 67.6998 1.91106 67.5808 1.73206L66.8798 2.19806ZM66.9408 2.34207C66.9408 2.37207 66.9308 2.43506 66.8758 2.53506L67.6178 2.93405C67.7158 2.75105 67.7828 2.55107 67.7828 2.34207H66.9408ZM66.8708 2.54706C66.8108 2.66506 66.7408 2.79107 66.6588 2.92407L67.3758 3.36505C67.4688 3.21405 67.5518 3.06707 67.6228 2.92307L66.8708 2.54706ZM66.6548 2.93106L57.1048 19.2141L57.8308 19.6401L67.3808 3.35706L66.6548 2.93106ZM57.1018 19.218C56.9358 19.509 56.7738 19.5791 56.6158 19.5791V20.4211C57.1568 20.4211 57.5628 20.109 57.8328 19.636L57.1018 19.218ZM79.2528 19.6721L78.8538 19.8061L78.8558 19.8111L79.2528 19.6721ZM79.3348 2.01407L79.0088 1.74905L79.0068 1.75107L79.3348 2.01407ZM80.8588 2.45605L81.2088 2.22305L81.2078 2.22107L80.8588 2.45605ZM91.0148 17.7231L90.6638 17.9561L91.0148 18.4831L91.3648 17.9561L91.0148 17.7231ZM101.17 2.45605L101.521 2.69006L101.523 2.68607L101.17 2.45605ZM102.678 2.01407L102.341 2.26706L102.35 2.27905L102.359 2.29007L102.678 2.01407ZM102.776 19.6721L103.173 19.8111L103.175 19.8051L102.776 19.6721ZM101.629 19.6721L101.236 19.8221L101.24 19.8341L101.245 19.8451L101.629 19.6721ZM101.498 4.30707H101.919V2.93607L101.15 4.07108L101.498 4.30707ZM91.8168 18.5911L92.1608 18.8341L92.1658 18.8271L91.8168 18.5911ZM90.2118 18.5911L90.5648 18.3631L90.5598 18.3551L90.2118 18.5911ZM80.5308 4.30707L80.8788 4.07108L80.1098 2.93607V4.30707H80.5308ZM80.3838 19.6721L79.9968 19.507L79.9928 19.5161L80.3838 19.6721ZM79.8428 19.5791C79.7288 19.5791 79.6778 19.559 79.6618 19.55C79.6558 19.547 79.6558 19.5451 79.6558 19.5461C79.6568 19.5471 79.6538 19.5441 79.6508 19.5331L78.8558 19.8111C78.9268 20.0151 79.0618 20.1801 79.2538 20.2861C79.4348 20.3871 79.6408 20.4211 79.8428 20.4211V19.5791ZM79.6528 19.5391C79.5938 19.3641 79.5598 19.1381 79.5598 18.8531H78.7178C78.7178 19.2021 78.7598 19.5221 78.8538 19.8051L79.6528 19.5391ZM79.5598 18.8531V2.63705H78.7178V18.8531H79.5598ZM79.5598 2.63705C79.5598 2.46105 79.6038 2.35207 79.6638 2.27707L79.0068 1.75107C78.8048 2.00407 78.7178 2.30905 78.7178 2.63705H79.5598ZM79.6618 2.28006C79.7318 2.19406 79.7898 2.17307 79.8588 2.17307V1.33105C79.5128 1.33105 79.2228 1.48505 79.0088 1.74905L79.6618 2.28006ZM79.8588 2.17307C79.9988 2.17307 80.2218 2.26505 80.5098 2.69205L81.2078 2.22107C80.8618 1.70907 80.4188 1.33105 79.8588 1.33105V2.17307ZM80.5078 2.69006L90.6638 17.9561L91.3648 17.4901L81.2088 2.22305L80.5078 2.69006ZM91.3648 17.9561L101.521 2.69006L100.82 2.22305L90.6638 17.4901L91.3648 17.9561ZM101.523 2.68607C101.796 2.26607 102.018 2.17307 102.17 2.17307V1.33105C101.6 1.33105 101.156 1.70705 100.818 2.22705L101.523 2.68607ZM102.17 2.17307C102.237 2.17307 102.284 2.19106 102.341 2.26706L103.014 1.76205C102.809 1.48705 102.518 1.33105 102.17 1.33105V2.17307ZM102.359 2.29007C102.425 2.36507 102.47 2.47005 102.47 2.63705H103.311C103.311 2.30105 103.214 1.99107 102.996 1.73807L102.359 2.29007ZM102.47 2.63705V18.8531H103.311V2.63705H102.47ZM102.47 18.8531C102.47 19.1381 102.435 19.3641 102.376 19.5391L103.175 19.8051C103.269 19.5221 103.311 19.2021 103.311 18.8531H102.47ZM102.379 19.5331C102.375 19.5441 102.372 19.5471 102.373 19.5461C102.373 19.5451 102.373 19.547 102.367 19.55C102.351 19.559 102.301 19.5791 102.186 19.5791V20.4211C102.388 20.4211 102.594 20.3871 102.775 20.2861C102.967 20.1801 103.102 20.0151 103.173 19.8111L102.379 19.5331ZM102.186 19.5791C102.105 19.5791 102.068 19.5631 102.055 19.5551C102.046 19.5501 102.031 19.5391 102.013 19.5001L101.245 19.8451C101.326 20.0241 101.452 20.1771 101.629 20.2811C101.801 20.3821 101.994 20.4211 102.186 20.4211V19.5791ZM102.022 19.5231C101.958 19.3531 101.919 19.1331 101.919 18.8531H101.077C101.077 19.2071 101.126 19.5331 101.236 19.8221L102.022 19.5231ZM101.919 18.8531V4.30707H101.077V18.8531H101.919ZM101.15 4.07108L91.4688 18.3551L92.1658 18.8271L101.847 4.54407L101.15 4.07108ZM91.4728 18.3491C91.2378 18.6831 91.0798 18.7271 91.0148 18.7271V19.5691C91.4948 19.5691 91.8728 19.2431 92.1608 18.8341L91.4728 18.3491ZM91.0148 18.7271C90.9248 18.7271 90.7688 18.6781 90.5648 18.3631L89.8588 18.8201C90.1348 19.2471 90.5148 19.5691 91.0148 19.5691V18.7271ZM90.5598 18.3551L80.8788 4.07108L80.1828 4.54407L89.8628 18.8271L90.5598 18.3551ZM80.1098 4.30707V18.8531H80.9518V4.30707H80.1098ZM80.1098 18.8531C80.1098 19.1281 80.0668 19.342 79.9968 19.507L80.7698 19.8381C80.8958 19.5441 80.9518 19.2121 80.9518 18.8531H80.1098ZM79.9928 19.5161C79.9788 19.5511 79.9678 19.5561 79.9648 19.5581C79.9568 19.5631 79.9248 19.5791 79.8428 19.5791V20.4211C80.0338 20.4211 80.2278 20.3831 80.4008 20.2781C80.5778 20.1711 80.7008 20.0121 80.7738 19.8291L79.9928 19.5161ZM128.993 3.75006L128.728 4.07806L128.729 4.07907L128.993 3.75006ZM128.993 18.0021L128.729 17.6731L128.728 17.6741L128.993 18.0021ZM127.879 17.3631L128.125 17.7041L128.126 17.7031L127.879 17.3631ZM127.879 4.40607L127.631 4.74606L127.633 4.74707L127.879 4.40607ZM111.858 17.3631L111.61 17.7021L111.612 17.7041L111.858 17.3631ZM119.869 19.9231C115.756 19.9231 112.831 19.1461 111.009 17.6741L110.48 18.3291C112.524 19.9801 115.682 20.7651 119.869 20.7651V19.9231ZM111.009 17.6741C109.202 16.2141 108.266 13.9771 108.266 10.8761H107.424C107.424 14.1531 108.421 16.6661 110.48 18.3291L111.009 17.6741ZM108.266 10.8761C108.266 7.77507 109.202 5.53806 111.009 4.07806L110.48 3.42307C108.421 5.08607 107.424 7.59907 107.424 10.8761H108.266ZM111.009 4.07806C112.831 2.60606 115.756 1.82907 119.869 1.82907V0.987061C115.682 0.987061 112.524 1.77207 110.48 3.42307L111.009 4.07806ZM119.869 1.82907C123.981 1.82907 126.906 2.60606 128.728 4.07806L129.257 3.42307C127.213 1.77207 124.055 0.987061 119.869 0.987061V1.82907ZM128.729 4.07907C130.547 5.53907 131.487 7.77607 131.487 10.8761H132.329C132.329 7.59807 131.326 5.08506 129.256 3.42206L128.729 4.07907ZM131.487 10.8761C131.487 13.9761 130.547 16.2131 128.729 17.6731L129.256 18.33C131.326 16.667 132.329 14.1541 132.329 10.8761H131.487ZM128.728 17.6741C126.906 19.1461 123.981 19.9231 119.869 19.9231V20.7651C124.055 20.7651 127.213 19.9801 129.257 18.3291L128.728 17.6741ZM119.869 19.6841C123.486 19.6841 126.262 19.0471 128.125 17.7041L127.633 17.0211C125.979 18.2121 123.415 18.8421 119.869 18.8421V19.6841ZM128.126 17.7031C130.033 16.3181 130.937 14.0001 130.937 10.8761H130.095C130.095 13.8461 129.241 15.8531 127.631 17.0221L128.126 17.7031ZM130.937 10.8761C130.937 7.75307 130.033 5.43906 128.125 4.06406L127.633 4.74707C129.241 5.90607 130.095 7.90607 130.095 10.8761H130.937ZM128.126 4.06506C126.263 2.71106 123.487 2.06805 119.869 2.06805V2.91006C123.414 2.91006 125.978 3.54506 127.631 4.74606L128.126 4.06506ZM119.869 2.06805C116.25 2.06805 113.474 2.71106 111.611 4.06506L112.106 4.74606C113.759 3.54506 116.323 2.91006 119.869 2.91006V2.06805ZM111.611 4.06506C109.714 5.44006 108.817 7.75407 108.817 10.8761H109.658C109.658 7.90507 110.508 5.90506 112.106 4.74606L111.611 4.06506ZM108.817 10.8761C108.817 13.9991 109.715 16.3161 111.61 17.7021L112.107 17.0231C110.508 15.8541 109.658 13.8471 109.658 10.8761H108.817ZM111.612 17.7041C113.475 19.0471 116.251 19.6841 119.869 19.6841V18.8421C116.323 18.8421 113.758 18.2121 112.105 17.0211L111.612 17.7041ZM143.759 19.6401L143.362 19.7781L143.365 19.7891L143.37 19.7991L143.759 19.6401ZM143.628 2.83307H144.049V2.41205H143.628V2.83307ZM133.98 1.81805L133.914 1.40207H133.911L133.98 1.81805ZM154.636 1.81805L154.557 2.23105L154.561 2.23206L154.636 1.81805ZM154.636 2.80005L154.598 2.38107H154.596L154.636 2.80005ZM145.021 2.83307V2.41205H144.6V2.83307H145.021ZM144.906 19.6401L144.503 19.5171L144.5 19.5291L144.906 19.6401ZM144.333 19.5791C144.25 19.5791 144.213 19.562 144.2 19.554C144.19 19.547 144.17 19.5321 144.149 19.4801L143.37 19.7991C143.447 19.9881 143.572 20.1531 143.752 20.2661C143.93 20.3781 144.132 20.4211 144.333 20.4211V19.5791ZM144.157 19.5011C144.088 19.3021 144.049 19.0661 144.049 18.7881H143.207C143.207 19.1431 143.256 19.4751 143.362 19.7781L144.157 19.5011ZM144.049 18.7881V2.83307H143.207V18.7881H144.049ZM143.628 2.41205H134.799V3.25406H143.628V2.41205ZM134.799 2.41205C134.503 2.41205 134.237 2.40207 134 2.38107L133.927 3.22006C134.193 3.24306 134.484 3.25406 134.799 3.25406V2.41205ZM134 2.38107C133.974 2.37907 133.967 2.37508 133.971 2.37708C133.974 2.37808 133.978 2.38006 133.984 2.38406C133.99 2.38906 133.996 2.39406 134.002 2.40106C134.007 2.40706 134.01 2.41205 134.012 2.41605C134.014 2.42005 134.014 2.42107 134.014 2.41907C134.012 2.41407 134.008 2.39506 134.008 2.35806H133.166C133.166 2.55406 133.211 2.77108 133.361 2.94608C133.515 3.12708 133.726 3.20206 133.927 3.22006L134 2.38107ZM134.008 2.35806C134.008 2.25206 134.03 2.22706 134.026 2.23306C134.023 2.23706 134.018 2.24107 134.016 2.24207C134.016 2.24207 134.024 2.23706 134.049 2.23306L133.911 1.40207C133.693 1.43907 133.488 1.54207 133.345 1.73807C133.209 1.92507 133.166 2.14706 133.166 2.35806H134.008ZM134.047 2.23306C134.298 2.19306 134.549 2.17307 134.799 2.17307V1.33105C134.504 1.33105 134.208 1.35507 133.914 1.40207L134.047 2.23306ZM134.799 2.17307H153.817V1.33105H134.799V2.17307ZM153.817 2.17307C154.116 2.17307 154.361 2.19405 154.557 2.23105L154.715 1.40405C154.452 1.35405 154.151 1.33105 153.817 1.33105V2.17307ZM154.561 2.23206C154.576 2.23506 154.578 2.23706 154.572 2.23306C154.564 2.22906 154.559 2.22306 154.556 2.21906C154.553 2.21506 154.575 2.24606 154.575 2.35806H155.417C155.417 2.15306 155.379 1.93608 155.256 1.75208C155.125 1.55408 154.928 1.44308 154.711 1.40308L154.561 2.23206ZM154.575 2.35806C154.575 2.39706 154.571 2.41707 154.569 2.42407C154.567 2.43007 154.569 2.42105 154.58 2.40805C154.585 2.40105 154.591 2.39508 154.598 2.39008C154.605 2.38508 154.611 2.38107 154.615 2.38007C154.622 2.37607 154.619 2.37907 154.598 2.38107L154.674 3.22006C154.875 3.20106 155.083 3.12306 155.233 2.93906C155.376 2.76406 155.417 2.55006 155.417 2.35806H154.575ZM154.596 2.38107C154.384 2.40207 154.125 2.41205 153.817 2.41205V3.25406C154.142 3.25406 154.429 3.24306 154.676 3.21906L154.596 2.38107ZM153.817 2.41205H145.021V3.25406H153.817V2.41205ZM144.6 2.83307V18.7881H145.441V2.83307H144.6ZM144.6 18.7881C144.6 19.0711 144.565 19.3131 144.503 19.5171L145.309 19.7621C145.399 19.4641 145.441 19.1381 145.441 18.7881H144.6ZM144.5 19.5291C144.497 19.5381 144.495 19.5441 144.493 19.5481C144.492 19.5511 144.491 19.5531 144.49 19.5531H144.491C144.491 19.5521 144.491 19.553 144.489 19.554C144.483 19.558 144.442 19.5791 144.333 19.5791V20.4211C144.54 20.4211 144.753 20.3821 144.937 20.2661C145.132 20.1441 145.255 19.9611 145.312 19.7501L144.5 19.5291ZM177.822 3.75006L177.558 4.07806L177.559 4.07907L177.822 3.75006ZM177.822 18.0021L177.559 17.6731L177.558 17.6741L177.822 18.0021ZM176.708 17.3631L176.954 17.7041L176.956 17.7031L176.708 17.3631ZM176.708 4.40607L176.461 4.74606L176.462 4.74707L176.708 4.40607ZM160.688 4.40607L160.935 4.74606H160.936L160.688 4.40607ZM160.688 17.3631L160.44 17.7021L160.442 17.7041L160.688 17.3631ZM168.698 19.9231C164.586 19.9231 161.661 19.1461 159.839 17.6741L159.31 18.3291C161.353 19.9801 164.512 20.7651 168.698 20.7651V19.9231ZM159.839 17.6741C158.032 16.2141 157.096 13.9771 157.096 10.8761H156.254C156.254 14.1531 157.251 16.6661 159.31 18.3291L159.839 17.6741ZM157.096 10.8761C157.096 7.77507 158.032 5.53806 159.839 4.07806L159.31 3.42307C157.251 5.08607 156.254 7.59907 156.254 10.8761H157.096ZM159.839 4.07806C161.661 2.60606 164.586 1.82907 168.698 1.82907V0.987061C164.512 0.987061 161.353 1.77207 159.31 3.42307L159.839 4.07806ZM168.698 1.82907C172.811 1.82907 175.736 2.60606 177.558 4.07806L178.087 3.42307C176.043 1.77207 172.885 0.987061 168.698 0.987061V1.82907ZM177.559 4.07907C179.376 5.53907 180.317 7.77607 180.317 10.8761H181.159C181.159 7.59807 180.156 5.08506 178.086 3.42206L177.559 4.07907ZM180.317 10.8761C180.317 13.9761 179.376 16.2131 177.559 17.6731L178.086 18.33C180.156 16.667 181.159 14.1541 181.159 10.8761H180.317ZM177.558 17.6741C175.736 19.1461 172.811 19.9231 168.698 19.9231V20.7651C172.885 20.7651 176.043 19.9801 178.087 18.3291L177.558 17.6741ZM168.698 19.6841C172.316 19.6841 175.091 19.0471 176.954 17.7041L176.462 17.0211C174.809 18.2121 172.244 18.8421 168.698 18.8421V19.6841ZM176.956 17.7031C178.863 16.3181 179.767 14.0001 179.767 10.8761H178.925C178.925 13.8461 178.071 15.8531 176.461 17.0221L176.956 17.7031ZM179.767 10.8761C179.767 7.75307 178.863 5.43906 176.954 4.06406L176.462 4.74707C178.07 5.90607 178.925 7.90607 178.925 10.8761H179.767ZM176.956 4.06506C175.093 2.71106 172.317 2.06805 168.698 2.06805V2.91006C172.244 2.91006 174.808 3.54506 176.461 4.74606L176.956 4.06506ZM168.698 2.06805C165.08 2.06805 162.304 2.71106 160.441 4.06506L160.936 4.74606C162.589 3.54506 165.153 2.91006 168.698 2.91006V2.06805ZM160.441 4.06506C158.544 5.44006 157.646 7.75407 157.646 10.8761H158.488C158.488 7.90507 159.338 5.90506 160.935 4.74606L160.441 4.06506ZM157.646 10.8761C157.646 13.9991 158.544 16.3161 160.44 17.7021L160.937 17.0231C159.338 15.8541 158.488 13.8471 158.488 10.8761H157.646ZM160.442 17.7041C162.305 19.0471 165.081 19.6841 168.698 19.6841V18.8421C165.152 18.8421 162.588 18.2121 160.934 17.0211L160.442 17.7041ZM185.889 19.6401L185.497 19.7931L185.5 19.7991L185.889 19.6401ZM195.325 1.88306L195.296 2.30307H195.3L195.325 1.88306ZM198.732 2.52206L198.589 2.91806L198.593 2.91907L198.732 2.52206ZM200.992 4.19305L200.646 4.43207L200.647 4.43405L200.992 4.19305ZM201.172 9.89307L201.526 10.1211L201.528 10.1181L201.172 9.89307ZM199.518 11.4171L199.318 11.0461L199.316 11.0481L199.518 11.4171ZM197.274 12.2361L197.358 12.6481L197.362 12.6471L197.274 12.2361ZM194.866 12.5301L194.849 12.11L193.922 12.1481L194.561 12.8211L194.866 12.5301ZM200.894 18.8701L200.589 19.1601L200.596 19.1671L200.894 18.8701ZM200.239 19.9181L200.062 20.3L200.075 20.3061L200.088 20.3111L200.239 19.9181ZM199.829 19.6071L200.139 19.3211L200.136 19.3191L199.829 19.6071ZM193.261 12.5961L193.568 12.3081L193.443 12.175H193.261V12.5961ZM187.134 12.5961V12.175H186.713V12.5961H187.134ZM187.02 19.623L187.422 19.7461L187.424 19.7411L187.02 19.623ZM187.134 11.5151H186.713V11.9361H187.134V11.5151ZM196.799 11.2531L196.866 11.6681H196.87L196.799 11.2531ZM199.403 10.106L199.682 10.4221V10.4211L199.403 10.106ZM199.338 4.29105L199.055 4.60306L199.058 4.60507L199.338 4.29105ZM187.134 2.83307V2.41205H186.713V2.83307H187.134ZM186.512 19.5791C186.405 19.5791 186.352 19.5591 186.33 19.5461C186.313 19.5361 186.296 19.5221 186.279 19.4801L185.5 19.7991C185.581 19.9981 185.717 20.164 185.908 20.274C186.093 20.381 186.303 20.4211 186.512 20.4211V19.5791ZM186.281 19.4861C186.206 19.2951 186.163 19.0541 186.163 18.7551H185.321C185.321 19.1331 185.376 19.4821 185.497 19.7931L186.281 19.4861ZM186.163 18.7551V2.35806H185.321V18.7551H186.163ZM186.163 2.35806C186.163 2.20606 186.168 2.10207 186.176 2.03607C186.18 2.00307 186.184 1.99105 186.183 1.99405C186.182 1.99605 186.179 2.00806 186.17 2.02606C186.162 2.04206 186.143 2.07805 186.105 2.11505L185.51 1.52005C185.422 1.60805 185.388 1.71206 185.375 1.75806C185.358 1.81606 185.347 1.87806 185.341 1.93506C185.327 2.05006 185.321 2.19306 185.321 2.35806H186.163ZM186.105 2.11505C186.068 2.15305 186.032 2.17205 186.016 2.18005C185.998 2.18905 185.986 2.19205 185.984 2.19305C185.981 2.19405 185.993 2.19007 186.026 2.18607C186.091 2.17807 186.196 2.17307 186.348 2.17307V1.33105C186.183 1.33105 186.04 1.33707 185.925 1.35107C185.868 1.35707 185.806 1.36807 185.748 1.38507C185.702 1.39807 185.598 1.43205 185.51 1.52005L186.105 2.11505ZM186.348 2.17307H191.098V1.33105H186.348V2.17307ZM191.098 2.17307C192.619 2.17307 194.019 2.21607 195.296 2.30307L195.353 1.46307C194.053 1.37507 192.635 1.33105 191.098 1.33105V2.17307ZM195.3 2.30307C196.569 2.37807 197.664 2.58506 198.589 2.91806L198.874 2.12607C197.856 1.76007 196.679 1.54107 195.349 1.46307L195.3 2.30307ZM198.593 2.91907C199.489 3.23107 200.166 3.73707 200.646 4.43207L201.339 3.95407C200.748 3.09807 199.918 2.49005 198.87 2.12405L198.593 2.91907ZM200.647 4.43405C201.114 5.10105 201.374 6.07907 201.374 7.42007H202.216C202.216 5.98607 201.94 4.81305 201.337 3.95105L200.647 4.43405ZM201.374 7.42007C201.374 8.35607 201.179 9.09706 200.817 9.66806L201.528 10.1181C201.996 9.37907 202.216 8.47107 202.216 7.42007H201.374ZM200.819 9.66507C200.443 10.2491 199.945 10.7081 199.318 11.0461L199.718 11.787C200.467 11.383 201.072 10.8261 201.526 10.1211L200.819 9.66507ZM199.316 11.0481C198.677 11.3981 197.968 11.6571 197.186 11.8241L197.362 12.6471C198.217 12.4651 199.005 12.1781 199.72 11.7861L199.316 11.0481ZM197.19 11.8231C196.403 11.9831 195.623 12.078 194.849 12.11L194.883 12.951C195.703 12.917 196.528 12.8161 197.358 12.6481L197.19 11.8231ZM194.561 12.8211L200.589 19.1601L201.199 18.58L195.171 12.2401L194.561 12.8211ZM200.596 19.1671C200.725 19.2961 200.752 19.3911 200.752 19.4591H201.593C201.593 19.1131 201.434 18.8151 201.192 18.5721L200.596 19.1671ZM200.752 19.4591C200.752 19.5721 200.723 19.5791 200.74 19.563C200.754 19.549 200.739 19.5791 200.616 19.5791V20.4211C200.863 20.4211 201.126 20.3611 201.326 20.1671C201.529 19.9711 201.593 19.7081 201.593 19.4591H200.752ZM200.616 19.5791C200.574 19.5791 200.501 19.5681 200.39 19.5251L200.088 20.3111C200.26 20.3771 200.439 20.4211 200.616 20.4211V19.5791ZM200.415 19.5361C200.334 19.4981 200.241 19.4321 200.139 19.3211L199.52 19.8921C199.68 20.0661 199.86 20.207 200.062 20.3L200.415 19.5361ZM200.136 19.3191L193.568 12.3081L192.954 12.8841L199.522 19.8951L200.136 19.3191ZM193.261 12.175H187.134V13.0171H193.261V12.175ZM186.713 12.5961V18.7551H187.555V12.5961H186.713ZM186.713 18.7551C186.713 19.0381 186.679 19.2871 186.616 19.5051L187.424 19.7411C187.513 19.4351 187.555 19.1051 187.555 18.7551H186.713ZM186.617 19.5011C186.608 19.5321 186.598 19.5491 186.592 19.5581C186.59 19.5631 186.587 19.5651 186.586 19.5661C186.585 19.5671 186.585 19.5681 186.585 19.5681C186.584 19.5681 186.584 19.5681 186.583 19.5691C186.581 19.5701 186.578 19.5711 186.573 19.5721C186.563 19.5751 186.544 19.5791 186.512 19.5791V20.4211C186.711 20.4211 186.913 20.372 187.086 20.244C187.259 20.115 187.364 19.9361 187.422 19.7461L186.617 19.5011ZM187.134 11.9361H193.277V11.0941H187.134V11.9361ZM193.277 11.9361C194.563 11.9361 195.76 11.8471 196.866 11.6681L196.732 10.8371C195.676 11.0081 194.525 11.0941 193.277 11.0941V11.9361ZM196.87 11.6681C198.009 11.4721 198.955 11.0641 199.682 10.4221L199.125 9.79105C198.541 10.306 197.751 10.6621 196.728 10.8381L196.87 11.6681ZM199.682 10.4211C200.467 9.72605 200.824 8.69707 200.824 7.42007H199.982C199.982 8.54507 199.672 9.30605 199.124 9.79105L199.682 10.4211ZM200.824 7.42007C200.824 5.91007 200.456 4.72405 199.618 3.97705L199.058 4.60507C199.64 5.12507 199.982 6.02407 199.982 7.42007H200.824ZM199.621 3.97906C198.823 3.25506 197.678 2.83007 196.242 2.66107L196.143 3.49707C197.481 3.65507 198.434 4.03906 199.055 4.60306L199.621 3.97906ZM196.243 2.66107C194.844 2.49407 193.129 2.41205 191.098 2.41205V3.25406C193.109 3.25406 194.789 3.33607 196.143 3.49707L196.243 2.66107ZM191.098 2.41205H187.134V3.25406H191.098V2.41205ZM186.713 2.83307V11.5151H187.555V2.83307H186.713ZM212.991 20.0331L212.936 20.4501H212.937L212.991 20.0331ZM206.455 18.5261L206.272 18.9051L206.28 18.9081L206.455 18.5261ZM206.668 17.4611L206.502 17.8481L206.51 17.8511L206.668 17.4611ZM209.305 18.231L209.207 18.6401L209.211 18.6411L209.305 18.231ZM213.335 18.9521L213.277 19.369H213.28L213.335 18.9521ZM221.869 18.8531L221.956 19.2651L221.959 19.2641L221.869 18.8531ZM225.145 12.8911L224.87 13.2091L224.873 13.2121L225.145 12.8911ZM215.906 11.0731L215.889 11.4931H215.892L215.906 11.0731ZM206.651 4.06207L206.327 3.79407H206.326L206.651 4.06207ZM208.928 2.45605L209.085 2.84705L209.089 2.84506L208.928 2.45605ZM219.69 1.65405L219.637 2.07108L219.64 2.07205L219.69 1.65405ZM225.489 3.03006L225.31 3.41107L225.32 3.41507L225.489 3.03006ZM225.587 3.89807L225.264 3.62805L225.257 3.63705L225.251 3.64505L225.587 3.89807ZM224.883 4.02905L225.092 3.66406L225.069 3.65106L225.046 3.64105L224.883 4.02905ZM208.404 4.09406L208.156 3.75406L208.154 3.75607L208.404 4.09406ZM210.353 9.23807L210.265 9.64905L210.269 9.65005L210.353 9.23807ZM213.58 9.66406L213.55 10.0841H213.554L213.58 9.66406ZM217.299 9.89307L217.274 10.313L217.277 10.3141L217.299 9.89307ZM221.001 10.2211L220.947 10.6381H220.948L221.001 10.2211ZM226.57 17.5271L226.239 17.2671L226.236 17.2711L226.57 17.5271ZM224.375 19.1971L224.543 19.5831L224.547 19.5821L224.375 19.1971ZM217.594 19.9071C216.061 19.9071 214.545 19.8101 213.045 19.6151L212.937 20.4501C214.473 20.6491 216.025 20.7491 217.594 20.7491V19.9071ZM213.045 19.6151C211.55 19.4201 210.227 19.1831 209.077 18.9031L208.877 19.7211C210.064 20.0091 211.418 20.2521 212.936 20.4501L213.045 19.6151ZM209.078 18.9031C207.925 18.6201 207.116 18.3661 206.63 18.1431L206.28 18.9081C206.842 19.166 207.715 19.4361 208.877 19.7211L209.078 18.9031ZM206.637 18.1471C206.539 18.0991 206.492 18.0531 206.469 18.0201C206.449 17.9911 206.434 17.9521 206.434 17.8871H205.592C205.592 18.1061 205.65 18.3161 205.777 18.4991C205.902 18.6791 206.076 18.8111 206.272 18.9051L206.637 18.1471ZM206.434 17.8871C206.434 17.8381 206.439 17.811 206.443 17.8C206.445 17.79 206.445 17.7981 206.432 17.8121C206.427 17.8181 206.42 17.8241 206.413 17.8281C206.406 17.8331 206.401 17.8351 206.399 17.8361C206.395 17.8371 206.406 17.8331 206.439 17.8331V16.9911C206.219 16.9911 205.981 17.0541 205.806 17.2501C205.638 17.4361 205.592 17.6741 205.592 17.8871H206.434ZM206.439 17.8331C206.453 17.8331 206.473 17.8361 206.502 17.8481L206.834 17.0741C206.709 17.0211 206.577 16.9911 206.439 16.9911V17.8331ZM206.51 17.8511C207.108 18.0931 208.013 18.3551 209.207 18.6401L209.403 17.8211C208.217 17.5391 207.363 17.2881 206.825 17.0711L206.51 17.8511ZM209.211 18.6411C210.416 18.9171 211.771 19.16 213.277 19.369L213.393 18.5351C211.906 18.3291 210.575 18.0901 209.399 17.8211L209.211 18.6411ZM213.28 19.369C214.805 19.568 216.325 19.6671 217.839 19.6671V18.826C216.362 18.826 214.878 18.7291 213.389 18.5341L213.28 19.369ZM217.839 19.6671C219.317 19.6671 220.69 19.5341 221.956 19.2651L221.782 18.442C220.58 18.697 219.267 18.826 217.839 18.826V19.6671ZM221.959 19.2641C223.252 18.9811 224.319 18.5041 225.137 17.8161L224.596 17.1721C223.908 17.7501 222.976 18.18 221.779 18.442L221.959 19.2641ZM225.137 17.8161C225.997 17.0931 226.418 16.1071 226.418 14.9061H225.576C225.576 15.8891 225.243 16.6281 224.596 17.1721L225.137 17.8161ZM226.418 14.9061C226.418 13.9411 226.095 13.1431 225.417 12.5701L224.873 13.2121C225.331 13.5991 225.576 14.1451 225.576 14.9061H226.418ZM225.421 12.5731C224.789 12.0261 223.959 11.6361 222.954 11.3851L222.75 12.2021C223.666 12.4311 224.365 12.7721 224.87 13.2091L225.421 12.5731ZM222.954 11.3851C221.967 11.1381 220.862 10.9661 219.643 10.8661L219.574 11.705C220.757 11.802 221.815 11.9681 222.75 12.2021L222.954 11.3851ZM219.643 10.8661C218.446 10.7671 217.205 10.6961 215.921 10.6521L215.892 11.4931C217.163 11.5371 218.391 11.607 219.574 11.705L219.643 10.8661ZM215.924 10.6521C214.654 10.5981 213.423 10.5111 212.23 10.3921L212.146 11.2291C213.356 11.3501 214.603 11.4381 215.889 11.4931L215.924 10.6521ZM212.23 10.3921C211.061 10.2741 210.012 10.0761 209.08 9.80106L208.842 10.6081C209.832 10.9011 210.934 11.1071 212.146 11.2291L212.23 10.3921ZM209.08 9.80106C208.17 9.53206 207.473 9.13606 206.965 8.62906L206.37 9.22406C206.999 9.85306 207.83 10.3091 208.842 10.6081L209.08 9.80106ZM206.965 8.62906C206.491 8.15406 206.237 7.51006 206.237 6.65005H205.395C205.395 7.69005 205.709 8.56306 206.37 9.22406L206.965 8.62906ZM206.237 6.65005C206.237 5.67905 206.493 4.91707 206.977 4.32907L206.326 3.79407C205.696 4.56107 205.395 5.52406 205.395 6.65005H206.237ZM206.976 4.33005C207.493 3.70305 208.191 3.20705 209.085 2.84705L208.771 2.06607C207.766 2.47007 206.946 3.04407 206.327 3.79407L206.976 4.33005ZM209.089 2.84506C210 2.46806 211.028 2.20405 212.177 2.05505L212.068 1.22006C210.858 1.37706 209.757 1.65805 208.767 2.06805L209.089 2.84506ZM212.177 2.05505C213.337 1.90405 214.526 1.82907 215.743 1.82907V0.987061C214.491 0.987061 213.266 1.06506 212.068 1.22006L212.177 2.05505ZM215.743 1.82907C217.08 1.82907 218.378 1.91008 219.637 2.07108L219.744 1.23605C218.448 1.07005 217.114 0.987061 215.743 0.987061V1.82907ZM219.64 2.07205C220.905 2.22305 222.034 2.42206 223.029 2.66806L223.231 1.85107C222.196 1.59507 221.032 1.39005 219.74 1.23605L219.64 2.07205ZM223.029 2.66806C224.034 2.91706 224.789 3.16607 225.31 3.41107L225.668 2.64905C225.075 2.37005 224.258 2.10507 223.231 1.85107L223.029 2.66806ZM225.32 3.41507C225.33 3.42007 225.332 3.42207 225.33 3.42007C225.328 3.41907 225.325 3.41505 225.324 3.41205C225.32 3.40505 225.33 3.41805 225.33 3.47205H226.172C226.172 3.30805 226.139 3.13706 226.048 2.98306C225.954 2.82506 225.816 2.71407 225.658 2.64407L225.32 3.41507ZM225.33 3.47205C225.33 3.51505 225.318 3.56405 225.264 3.62805L225.911 4.16705C226.075 3.97005 226.172 3.73505 226.172 3.47205H225.33ZM225.251 3.64505C225.241 3.65805 225.235 3.66106 225.231 3.66306C225.225 3.66606 225.205 3.67407 225.161 3.67407V4.51508C225.459 4.51508 225.735 4.40305 225.924 4.15005L225.251 3.64505ZM225.161 3.67407C225.135 3.67407 225.117 3.67106 225.106 3.66806C225.096 3.66606 225.092 3.66406 225.092 3.66406L224.674 4.39407C224.828 4.48207 224.996 4.51508 225.161 4.51508V3.67407ZM225.046 3.64105C223.861 3.14405 222.441 2.76007 220.792 2.48407L220.653 3.31406C222.258 3.58306 223.611 3.95205 224.72 4.41705L225.046 3.64105ZM220.792 2.48407C219.142 2.20707 217.481 2.06805 215.808 2.06805V2.91006C217.434 2.91006 219.049 3.04506 220.653 3.31406L220.792 2.48407ZM215.808 2.06805C214.279 2.06805 212.845 2.19007 211.506 2.43607L211.658 3.26407C212.94 3.02807 214.323 2.91006 215.808 2.91006V2.06805ZM211.506 2.43607C210.153 2.68407 209.029 3.11706 208.156 3.75406L208.652 4.43405C209.395 3.89205 210.39 3.49607 211.658 3.26407L211.506 2.43607ZM208.154 3.75607C207.242 4.43007 206.788 5.37906 206.788 6.55206H207.629C207.629 5.62806 207.972 4.93808 208.654 4.43307L208.154 3.75607ZM206.788 6.55206C206.788 7.42806 207.127 8.14307 207.812 8.64407L208.309 7.96405C207.858 7.63505 207.629 7.18206 207.629 6.55206H206.788ZM207.812 8.64407C208.442 9.10507 209.267 9.43405 210.265 9.64905L210.442 8.82706C209.518 8.62706 208.814 8.33405 208.309 7.96405L207.812 8.64407ZM210.269 9.65005C211.251 9.85106 212.345 9.99508 213.55 10.0841L213.611 9.24405C212.435 9.15805 211.378 9.01805 210.438 8.82605L210.269 9.65005ZM213.554 10.0841C214.756 10.1601 215.996 10.237 217.274 10.313L217.324 9.47305C216.047 9.39705 214.808 9.32005 213.607 9.24405L213.554 10.0841ZM217.277 10.3141C218.545 10.3791 219.768 10.4871 220.947 10.6381L221.054 9.80307C219.853 9.64907 218.608 9.53905 217.32 9.47305L217.277 10.3141ZM220.948 10.6381C222.125 10.7881 223.176 11.0281 224.104 11.3551L224.384 10.5611C223.39 10.2111 222.279 9.95907 221.054 9.80307L220.948 10.6381ZM224.104 11.3551C225.012 11.6751 225.712 12.1261 226.224 12.6971L226.851 12.1351C226.227 11.4391 225.399 10.9181 224.384 10.5611L224.104 11.3551ZM226.224 12.6971C226.709 13.2381 226.968 13.9601 226.968 14.9061H227.81C227.81 13.7981 227.502 12.8611 226.851 12.1351L226.224 12.6971ZM226.968 14.9061C226.968 15.8781 226.717 16.6551 226.239 17.2671L226.902 17.7861C227.516 17.0001 227.81 16.0301 227.81 14.9061H226.968ZM226.236 17.2711C225.75 17.9061 225.078 18.422 224.203 18.813L224.547 19.5821C225.529 19.1421 226.321 18.5451 226.904 17.7821L226.236 17.2711ZM224.207 18.8111C223.318 19.1991 222.306 19.479 221.168 19.649L221.292 20.4821C222.491 20.3031 223.576 20.0041 224.543 19.5831L224.207 18.8111ZM221.168 19.649C220.021 19.821 218.83 19.9071 217.594 19.9071V20.7491C218.869 20.7491 220.102 20.6601 221.292 20.4821L221.168 19.649Z" fill="white"/>
</svg>